<?xml version="1.0" encoding="utf-8"?>
<!-- Generator: Adobe Illustrator 24.1.2, SVG Export Plug-In . SVG Version: 6.00 Build 0)  -->
<svg version="1.1" id="Layer_1" xmlns="http://www.w3.org/2000/svg" xmlns:xlink="http://www.w3.org/1999/xlink" x="0px" y="0px"
	 viewBox="0 0 339 343" style="enable-background:new 0 0 339 343;" xml:space="preserve">
<style type="text/css">
	.st0{fill-rule:evenodd;clip-rule:evenodd;}
</style>
<g>
	<g>
		<g>
			<path class="st0" d="M93.45,150.5c-7.69,0-13.92,6.23-13.92,13.92c0,7.69,6.23,13.92,13.92,13.92s13.92-6.23,13.92-13.92
				C107.37,156.73,101.14,150.5,93.45,150.5z M97.72,168.69c-2.36,2.36-6.18,2.36-8.54,0c-2.36-2.36-2.36-6.18,0-8.54
				c2.36-2.36,6.18-2.36,8.54,0C100.08,162.51,100.08,166.33,97.72,168.69z"/>
			<path class="st0" d="M130.15,177.99c-7.69,0-13.92,6.23-13.92,13.92c0,7.69,6.23,13.92,13.92,13.92s13.92-6.23,13.92-13.92
				C144.07,184.22,137.83,177.99,130.15,177.99z M134.42,196.18c-2.36,2.36-6.18,2.36-8.54,0c-2.36-2.36-2.36-6.18,0-8.54
				c2.36-2.36,6.18-2.36,8.54,0C136.77,190,136.77,193.82,134.42,196.18z"/>
			<circle class="st0" cx="240.23" cy="177.49" r="6.04"/>
			<rect x="101.89" y="157.4" class="st0" width="59.47" height="13.5"/>
			<rect x="138.58" y="185.24" class="st0" width="51.46" height="13.5"/>
			<circle class="st0" cx="203.54" cy="205.33" r="6.04"/>
			<circle class="st0" cx="186.67" cy="150.5" r="6.04"/>
			<path class="st0" d="M303.54,203.62v-58.58c-141.25-22.47-201.23-46.05-201.23-46.05s21.48,17.41,40.81,44.92h31.38
				c2.38-4.28,6.94-7.17,12.17-7.17c7.69,0,13.92,6.23,13.92,13.92c0,7.69-6.23,13.92-13.92,13.92c-5.24,0-9.8-2.89-12.17-7.17
				h-22.63c2.57,4.33,5.02,8.83,7.28,13.5h68.92c2.38-4.28,6.94-7.17,12.17-7.17c7.69,0,13.92,6.23,13.92,13.92
				s-6.23,13.92-13.92,13.92c-4.89,0-9.18-2.52-11.66-6.33h-63.29c1.62,4.39,3.04,8.9,4.22,13.5h21.87
				c2.38-4.28,6.94-7.17,12.17-7.17c7.69,0,13.92,6.23,13.92,13.92c0,7.69-6.23,13.92-13.92,13.92c-5.24,0-9.8-2.89-12.17-7.17H168
				c-11.12,28.11-28.71,44.97-27.05,43.47c0,0,11.04-9.73,32.15-22.29c-0.3,5.36-0.99,10.78-2.18,16.26
				C170.91,249.67,199.81,227.93,303.54,203.62z"/>
		</g>
		<path class="st0" d="M319.2,147.88c-11.78-1.79-23.01-3.6-33.74-5.4v65.83c9.96-2.52,20.72-5.08,32.34-7.67
			c1.98-9.84,3.02-20.02,3.02-30.44C320.82,162.62,320.26,155.17,319.2,147.88z"/>
	</g>
	<path class="st0" d="M294.81,221.89c-20.21,47.78-67.52,81.3-122.65,81.3c-73.52,0-133.12-59.6-133.12-133.12
		S98.64,36.95,172.16,36.95c59.22,0,109.4,38.68,126.68,92.15l20.65,3.54C302.65,66.73,242.88,17.99,171.72,17.99
		c-84.23,0-152.5,68.28-152.5,152.5S87.5,323,171.72,323c68.13,0,125.82-44.68,145.38-106.34L294.81,221.89z"/>
</g>
</svg>
